<svg xmlns="http://www.w3.org/2000/svg" width="55" height="34" fill="none"><path fill="#252F3E" d="M15.533 12.538c0 .676.073 1.225.2 1.627.146.403.328.842.582 1.317a.798.798 0 0 1 .128.42c0 .184-.11.367-.346.55l-1.146.767a.87.87 0 0 1-.474.165c-.181 0-.364-.091-.546-.256a5.66 5.66 0 0 1-.655-.86c-.182-.31-.364-.658-.564-1.079-1.42 1.683-3.203 2.524-5.35 2.524-1.529 0-2.748-.439-3.64-1.316-.891-.878-1.346-2.049-1.346-3.512 0-1.554.546-2.816 1.656-3.767C5.142 8.167 6.616 7.69 8.49 7.69c.619 0 1.256.055 1.93.147.673.091 1.364.237 2.092.402V6.905c0-1.39-.291-2.36-.855-2.926-.583-.567-1.565-.841-2.967-.841-.637 0-1.292.073-1.965.237-.673.165-1.328.366-1.965.622-.292.128-.51.201-.637.238a1.111 1.111 0 0 1-.292.055c-.254 0-.382-.183-.382-.567v-.896c0-.293.037-.512.128-.64.09-.128.254-.256.51-.384.636-.33 1.4-.604 2.292-.823A10.982 10.982 0 0 1 9.22.632c2.165 0 3.748.494 4.767 1.482 1.001.987 1.51 2.487 1.51 4.498v5.926h.037Zm-7.389 2.78c.601 0 1.22-.11 1.875-.33.655-.22 1.237-.621 1.729-1.17.29-.348.51-.732.619-1.17.109-.44.181-.97.181-1.591v-.769a15.11 15.11 0 0 0-1.674-.31 13.646 13.646 0 0 0-1.71-.11c-1.22 0-2.111.237-2.712.731-.6.494-.892 1.189-.892 2.103 0 .86.219 1.5.674 1.939.436.457 1.073.677 1.91.677Zm14.614 1.975c-.328 0-.546-.055-.692-.183-.145-.11-.273-.366-.382-.713L17.407 2.26c-.109-.366-.163-.604-.163-.732 0-.292.145-.457.436-.457h1.784c.346 0 .582.055.71.183.145.11.254.366.364.713l3.057 12.107 2.839-12.107c.09-.365.2-.603.345-.713.146-.11.4-.183.729-.183h1.455c.346 0 .583.055.728.183.146.11.273.366.346.713l2.875 12.253 3.149-12.253c.109-.365.236-.603.364-.713.145-.11.382-.183.71-.183h1.692c.291 0 .455.147.455.457 0 .092-.018.183-.037.293-.018.11-.054.256-.127.457l-4.386 14.137c-.109.366-.236.603-.382.713-.146.11-.382.183-.692.183h-1.565c-.345 0-.582-.055-.728-.183-.145-.128-.272-.366-.345-.731L28.199 4.6l-2.803 11.777c-.09.366-.2.604-.345.732-.146.128-.4.183-.728.183h-1.565Zm23.384.493c-.946 0-1.892-.11-2.802-.329-.91-.22-1.62-.457-2.093-.731-.291-.165-.491-.348-.564-.512a1.296 1.296 0 0 1-.11-.512v-.933c0-.384.146-.567.42-.567.109 0 .218.018.327.055.11.036.273.11.455.183a9.86 9.86 0 0 0 2.002.64c.728.146 1.437.22 2.165.22 1.147 0 2.039-.202 2.657-.604.619-.403.947-.988.947-1.738 0-.512-.164-.932-.492-1.28-.327-.347-.946-.658-1.838-.95l-2.639-.824c-1.328-.42-2.31-1.042-2.911-1.865-.6-.805-.91-1.7-.91-2.652 0-.768.164-1.445.491-2.03a4.695 4.695 0 0 1 1.31-1.5 5.765 5.765 0 0 1 1.893-.95c.728-.22 1.492-.311 2.293-.311.4 0 .819.018 1.22.073.418.055.8.128 1.182.201.364.091.71.183 1.038.293.327.11.582.22.764.329.255.146.437.292.546.457.109.146.164.347.164.604v.86c0 .383-.146.584-.419.584-.145 0-.382-.073-.691-.22-1.038-.475-2.203-.712-3.495-.712-1.037 0-1.856.164-2.42.512-.564.347-.855.877-.855 1.627 0 .512.182.951.546 1.299.364.347 1.037.695 2.002 1.006l2.584.823c1.31.42 2.256 1.005 2.82 1.755.565.75.837 1.61.837 2.56 0 .787-.163 1.5-.473 2.122a4.914 4.914 0 0 1-1.328 1.61c-.564.456-1.238.786-2.02 1.023a8.616 8.616 0 0 1-2.602.384Z"/><g fill="#F90" fill-rule="evenodd" clip-rule="evenodd"><path d="M49.582 26.674c-5.987 4.444-14.686 6.804-22.166 6.804-10.482 0-19.927-3.896-27.06-10.37-.565-.512-.055-1.207.618-.804 7.716 4.498 17.234 7.223 27.08 7.223 6.642 0 13.94-1.39 20.655-4.242 1-.458 1.856.658.873 1.39Z"/><path d="M52.075 23.822c-.764-.988-5.059-.476-7.006-.238-.583.073-.674-.44-.146-.823 3.421-2.414 9.045-1.72 9.7-.915.655.823-.182 6.474-3.385 9.181-.491.42-.964.201-.746-.348.728-1.81 2.348-5.888 1.583-6.857Z"/></g></svg>