<svg xmlns="http://www.w3.org/2000/svg" id="Layer_1" width="198" height="41.9" data-name="Layer 1" version="1.1"><defs id="defs3"><style id="style5">.cls-1{fill:#e20177}</style></defs><path id="rect3364" d="M6.214 7.812h29.65v26.986H6.214z" style="fill:#000"/><path id="polygon9" d="M13.85 23.32v2.35h14.14v-2.35H13.85z" class="cls-1" style="fill:#e20177"/><path id="rect11" d="M18.56 16.25h9.43v2.36h-9.43z" class="cls-1" style="fill:#e20177"/><path id="path13" d="M21 0a21 21 0 1 0 21 21A21 21 0 0 0 21 0Zm11.7 16.25v14.14H9.13V18.6h4.71v-7.07H32.7v4.71z" class="cls-1" style="fill:#e20177"/><g id="g3432" transform="matrix(.99992 0 0 -.99569 62.856 22.718)"><path id="path3434" d="M0 0h-2.415v-3.431h2.39c1.194 0 2.263.406 2.263 1.802C2.238-.279 1.12 0 0 0m-.559 6.939h-1.856V4.017h1.831c1.043 0 1.906.303 1.906 1.498 0 1.196-.889 1.424-1.881 1.424M5.109-6.025C3.178-7.678 1.398-7.653-1.042-7.653h-5.974V11.16h5.796c2.262 0 4.398-.026 6.024-1.83.788-.865 1.12-1.934 1.12-3.102 0-1.602-.789-2.999-2.186-3.788C5.796 1.727 6.839.202 6.839-1.931c0-1.5-.56-3.104-1.73-4.094" style="fill:#000;fill-opacity:1;fill-rule:nonzero;stroke:none"/></g><g id="g3436" transform="matrix(.99992 0 0 -.99569 74.323 22.616)"><path id="path3438" d="M0 0v-7.755h-4.221v14.11h3.968v-1.5h.049c.738 1.45 1.908 1.983 3.535 1.983V2.592C1.475 2.541 0 2.187 0 0" style="fill:#000;fill-opacity:1;fill-rule:nonzero;stroke:none"/></g><g id="g3440" transform="matrix(.99992 0 0 -.99569 85.356 19.732)"><path id="path3442" d="M0 0c-2.059 0-3.482-1.626-3.482-3.633 0-1.958 1.525-3.561 3.508-3.561 2.06 0 3.535 1.576 3.535 3.61C3.561-1.524 2.059 0 0 0m3.561-10.652v1.526h-.052c-.763-1.448-2.592-2.007-4.118-2.007-4.347 0-7.093 3.354-7.093 7.549 0 4.118 2.847 7.525 7.093 7.525 1.55 0 3.278-.586 4.118-1.983h.052v1.5h4.218v-14.11H3.561z" style="fill:#000;fill-opacity:1;fill-rule:nonzero;stroke:none"/></g><g id="g3444" transform="matrix(.99992 0 0 -.99569 102.68 30.338)"><path id="path3446" d="M0 0v7.705c0 1.575-.305 2.921-2.211 2.921-1.958 0-2.416-1.27-2.416-2.948V0h-4.22v14.11h3.941v-1.5h.051c.89 1.45 2.137 1.983 3.837 1.983 1.199 0 2.697-.458 3.613-1.221 1.344-1.118 1.627-2.898 1.627-4.551V0H0Z" style="fill:#000;fill-opacity:1;fill-rule:nonzero;stroke:none"/></g><g id="g3448" transform="matrix(.99992 0 0 -.99569 115.184 19.758)"><path id="path3450" d="M0 0c-1.958 0-3.407-1.601-3.407-3.506 0-1.959 1.347-3.635 3.38-3.635 2.034 0 3.457 1.473 3.457 3.506C3.43-1.601 2.085 0 0 0m6.812-13.575c-1.398-2.363-4.576-3.33-7.143-3.33-2.39 0-4.779.738-6.179 2.772a4.965 4.965 0 0 0-.864 2.186h4.884c.455-1.016 1.421-1.398 2.463-1.398 2.314 0 3.431 1.6 3.431 3.84v.431h-.049c-.738-1.373-2.364-2.009-3.866-2.009-4.218 0-7.116 3.306-7.116 7.424 0 4.143 2.821 7.601 7.116 7.601 1.45 0 3.077-.484 3.892-1.782h.049v1.324h4.22V-8.922c0-1.576-.025-3.254-.838-4.653" style="fill:#000;fill-opacity:1;fill-rule:nonzero;stroke:none"/></g><g id="g3452" transform="matrix(.99992 0 0 -.99569 130.79 19.352)"><path id="path3454" d="M0 0c-1.525 0-2.872-.889-3.202-2.415h6.405C2.874-.889 1.525 0 0 0m7.322-5.262H-3.253C-2.999-6.939-1.602-7.93.053-7.93c1.143 0 1.88.455 2.566 1.322h4.322C5.722-9.432 3.23-11.49.053-11.49c-4.118 0-7.474 3.355-7.474 7.475 0 4.092 3.252 7.575 7.398 7.575 4.32 0 7.446-3.459 7.446-7.703 0-.382-.026-.737-.101-1.119" style="fill:#000;fill-opacity:1;fill-rule:nonzero;stroke:none"/></g><g id="g3456" transform="matrix(.99992 0 0 -.99569 142.897 22.616)"><path id="path3458" d="M0 0v-7.755h-4.22v14.11h3.966v-1.5h.051c.738 1.45 1.909 1.983 3.534 1.983V2.592C1.476 2.541 0 2.187 0 0" style="fill:#000;fill-opacity:1;fill-rule:nonzero;stroke:none"/></g><path id="path3460" d="M144.602 30.338h13.711v4.114h-13.71v-4.114z" style="fill:#e40477;fill-opacity:1;fill-rule:nonzero;stroke:none"/><g id="g3462" transform="matrix(.99992 0 0 -.99569 166.809 22.718)"><path id="path3464" d="M0 0h-2.416v-3.431h2.389c1.195 0 2.264.406 2.264 1.802C2.237-.279 1.118 0 0 0m-.56 6.939h-1.856V4.017h1.829c1.043 0 1.908.303 1.908 1.498 0 1.196-.888 1.424-1.881 1.424M5.109-6.025C3.177-7.678 1.398-7.653-1.043-7.653h-5.975V11.16h5.797c2.263 0 4.398-.026 6.024-1.83.79-.865 1.119-1.934 1.119-3.102 0-1.602-.787-2.999-2.187-3.788 2.06-.713 3.103-2.238 3.103-4.371 0-1.5-.56-3.104-1.729-4.094" style="fill:#000;fill-opacity:1;fill-rule:nonzero;stroke:none"/></g><g id="g3466" transform="matrix(.99992 0 0 -.99569 178.476 23.086)"><path id="path3468" d="M0 0v-7.283h-4.221v14.11h3.967V4.854h.051C.534 6.303 1.703 6.836 3.33 6.836V2.591C1.473 2.54 0 2.185 0 0" style="fill:#000;fill-opacity:1;fill-rule:nonzero;stroke:none"/></g><path id="path3470" d="M182.518 16.289h4.22v14.049h-4.22v-14.05z" style="fill:#000;fill-opacity:1;fill-rule:nonzero;stroke:none"/><g id="g3472" transform="matrix(.99992 0 0 -.99569 187.38 30.338)"><path id="path3474" d="M0 0v2.898l5.99 8.008H0v3.204h10.573v-3.204L5.018 3.204h5.555V0H0Z" style="fill:#000;fill-opacity:1;fill-rule:nonzero;stroke:none"/></g></svg>