<svg xmlns="http://www.w3.org/2000/svg" width="46" height="53" fill="none"><path fill="#264DE4" d="M45.502.573 41.368 46.88l-18.58 5.15-18.53-5.143L.128.573h45.374Z"/><path fill="#2965F1" d="M37.83 43.931 41.361 4.36H22.815v43.733l15.014-4.162Z"/><path fill="#EBEBEB" d="m9.595 21.537.509 5.68h12.711v-5.68H9.595ZM22.815 10.04H8.572l.516 5.68h13.727v-5.68ZM22.815 42.199v-5.91l-.025.007-6.326-1.709-.404-4.53h-5.702l.795 8.919 11.636 3.23.026-.007Z"/><path fill="#fff" d="m29.79 27.217-.66 7.367-6.334 1.71v5.91l11.644-3.228.086-.96 1.334-14.954.14-1.525 1.025-11.497h-14.23v5.68H30.8l-.516 5.817h-7.488v5.68h6.995Z"/></svg>