<svg width="46" height="53" viewBox="0 0 46 53" fill="none" xmlns="http://www.w3.org/2000/svg">
<g id="css3">
<path id="polygon2989" d="M45.5017 0.572876L41.3681 46.8797L22.7874 52.0309L4.25788 46.8869L0.128662 0.572876H45.5017Z" fill="#264DE4"/>
<path id="polygon2991" d="M37.8293 43.931L41.3617 4.35974H22.8152V48.0935L37.8293 43.931Z" fill="#2965F1"/>
<path id="polygon2993" d="M9.59485 21.537L10.104 27.2172H22.8152V21.537H9.59485Z" fill="#EBEBEB"/>
<path id="polygon2995" d="M22.8152 10.0399H22.7956H8.5719L9.08825 15.7202H22.8152V10.0399Z" fill="#EBEBEB"/>
<path id="polygon2997" d="M22.8151 42.1988V36.289L22.7902 36.2956L16.4641 34.5874L16.0597 30.0572H12.9857H10.3577L11.1535 38.976L22.789 42.2061L22.8151 42.1988Z" fill="#EBEBEB"/>
<path id="polygon3005" d="M29.7901 27.217L29.1308 34.5838L22.7955 36.2938V42.2033L34.4403 38.976L34.5257 38.0163L35.8605 23.0621L35.9991 21.5368L37.0246 10.0399H22.7955V15.7202H30.7995L30.2827 21.5368H22.7955V27.217H29.7901Z" fill="white"/>
</g>
</svg>
