<svg xmlns="http://www.w3.org/2000/svg" width="55" height="41" fill="none"><g fill="#2496ED"><path d="M54.441 15.493c-.148-.118-1.533-1.17-4.455-1.17-.771.004-1.541.07-2.302.2-.565-3.895-3.77-5.794-3.913-5.88l-.785-.454-.516.748a10.594 10.594 0 0 0-1.394 3.277c-.523 2.223-.205 4.312.919 6.097-1.358.76-3.535.947-3.975.963H1.977a1.717 1.717 0 0 0-1.71 1.712 26.18 26.18 0 0 0 1.578 9.308c1.242 3.272 3.089 5.682 5.492 7.157 2.693 1.657 7.068 2.604 12.028 2.604 2.24.008 4.476-.196 6.68-.608a27.835 27.835 0 0 0 8.716-3.182 23.986 23.986 0 0 0 5.95-4.894c2.855-3.249 4.556-6.866 5.821-10.082h.505c3.126 0 5.049-1.257 6.109-2.31a6.703 6.703 0 0 0 1.611-2.399l.224-.658-.54-.429Z"/><path d="M5.318 18.214h4.83c.233 0 .421-.19.421-.424v-4.323a.423.423 0 0 0-.419-.427H5.318a.423.423 0 0 0-.422.424V17.79c0 .234.189.424.422.424ZM11.974 18.214h4.83c.233 0 .421-.19.421-.424v-4.323a.423.423 0 0 0-.42-.427h-4.832a.425.425 0 0 0-.424.427v4.323c.002.234.191.424.425.424M18.73 18.214h4.83c.234 0 .422-.19.422-.424v-4.323a.423.423 0 0 0-.419-.427h-4.832a.423.423 0 0 0-.422.424V17.79c0 .234.189.424.422.424ZM25.408 18.214h4.83c.233 0 .423-.19.424-.424v-4.323a.425.425 0 0 0-.424-.427h-4.83a.423.423 0 0 0-.422.424V17.79c0 .234.189.424.422.424ZM11.974 11.994h4.83a.425.425 0 0 0 .421-.426V7.244a.423.423 0 0 0-.421-.423h-4.83a.425.425 0 0 0-.424.423v4.324c0 .235.19.425.424.426ZM18.73 11.994h4.83a.425.425 0 0 0 .422-.426V7.244a.423.423 0 0 0-.421-.423h-4.83a.423.423 0 0 0-.422.423v4.324c0 .234.188.425.422.426ZM25.408 11.994h4.83a.427.427 0 0 0 .424-.426V7.244a.425.425 0 0 0-.424-.423h-4.83a.423.423 0 0 0-.422.423v4.324c0 .234.189.425.422.426ZM25.408 5.772h4.83c.233 0 .423-.19.424-.424V1.022a.425.425 0 0 0-.424-.424h-4.83a.423.423 0 0 0-.422.424v4.326c0 .234.189.424.422.424ZM32.144 18.214h4.83c.233 0 .423-.19.424-.424v-4.323a.425.425 0 0 0-.424-.427h-4.83a.423.423 0 0 0-.422.424V17.79c0 .234.189.424.422.424"/></g></svg>