<svg xmlns="http://www.w3.org/2000/svg" width="55" height="56" fill="none"><path fill="#DE4C36" d="M53.855 25.092 29.965 1.086a3.512 3.512 0 0 0-4.983 0L20.02 6.07l6.293 6.324a4.168 4.168 0 0 1 4.305 1.008 4.225 4.225 0 0 1 .994 4.353l6.065 6.095a4.172 4.172 0 0 1 4.333 1 4.227 4.227 0 0 1 0 5.959 4.178 4.178 0 0 1-5.931 0 4.231 4.231 0 0 1-.913-4.583l-5.656-5.684V35.5c.41.204.784.473 1.108.797a4.229 4.229 0 0 1 0 5.96 4.177 4.177 0 0 1-5.929 0 4.228 4.228 0 0 1 0-5.96 4.2 4.2 0 0 1 1.372-.92V20.282a4.227 4.227 0 0 1-2.276-5.526L17.584 8.52 1.203 24.98a3.555 3.555 0 0 0 0 5.01l23.89 24.007a3.512 3.512 0 0 0 4.983 0l23.779-23.895a3.556 3.556 0 0 0 0-5.01"/></svg>