<svg xmlns="http://www.w3.org/2000/svg" width="40" height="40" fill="none"><g fill="#fff" fill-rule="evenodd" clip-rule="evenodd"><path d="M19.512 4.878c-3.974 0-4.472.017-6.033.088-1.558.071-2.622.319-3.553.68a7.167 7.167 0 0 0-2.592 1.689 7.178 7.178 0 0 0-1.688 2.59c-.36.932-.609 1.997-.68 3.555-.07 1.56-.088 2.057-.088 6.032 0 3.976.017 4.472.088 6.033.071 1.558.319 2.623.68 3.553.368.976.943 1.861 1.689 2.593a7.179 7.179 0 0 0 2.59 1.688c.932.36 1.996.608 3.554.68 1.561.07 2.059.087 6.033.087 3.975 0 4.472-.016 6.033-.087 1.558-.072 2.623-.32 3.553-.681a7.168 7.168 0 0 0 2.593-1.688 7.178 7.178 0 0 0 1.688-2.591c.36-.931.608-1.996.68-3.554.07-1.56.087-2.058.087-6.033 0-3.974-.016-4.472-.087-6.033-.072-1.558-.32-2.622-.681-3.553a7.174 7.174 0 0 0-1.688-2.592 7.18 7.18 0 0 0-2.591-1.688c-.931-.36-1.997-.609-3.555-.68-1.56-.07-2.056-.088-6.032-.088Zm0 2.637c3.907 0 4.37.015 5.914.085 1.427.065 2.201.302 2.717.504.683.265 1.171.583 1.683 1.094.512.512.83 1 1.094 1.683.201.516.439 1.29.504 2.717.07 1.543.085 2.007.085 5.914 0 3.907-.014 4.37-.085 5.914-.065 1.427-.302 2.201-.504 2.717a4.531 4.531 0 0 1-1.094 1.683 4.528 4.528 0 0 1-1.683 1.094c-.516.201-1.29.439-2.717.504-1.543.07-2.005.085-5.914.085-3.908 0-4.37-.014-5.914-.085-1.426-.065-2.2-.302-2.717-.504a4.532 4.532 0 0 1-1.683-1.094 4.534 4.534 0 0 1-1.094-1.683c-.2-.516-.439-1.29-.504-2.717-.07-1.543-.085-2.006-.085-5.914 0-3.907.015-4.37.085-5.914.065-1.426.302-2.2.504-2.717a4.532 4.532 0 0 1 1.094-1.683 4.53 4.53 0 0 1 1.683-1.094c.516-.2 1.29-.439 2.717-.504 1.543-.07 2.007-.085 5.914-.085Z"/><path d="M19.512 24.395a4.882 4.882 0 1 1 0-9.765 4.882 4.882 0 0 1 0 9.765Zm0-12.405a7.522 7.522 0 1 0 0 15.044 7.522 7.522 0 0 0 0-15.044Zm9.71-.136a1.778 1.778 0 1 1-3.556 0 1.778 1.778 0 0 1 3.556 0"/></g></svg>