<svg xmlns="http://www.w3.org/2000/svg" width="40" height="40" fill="none"><path fill="#000" d="M33.419 12.878c.02.287.02.574.02.863 0 8.816-6.712 18.984-18.984 18.984v-.006a18.89 18.89 0 0 1-10.227-2.99 13.398 13.398 0 0 0 9.874-2.765 6.68 6.68 0 0 1-6.233-4.634c1 .193 2.03.153 3.012-.115a6.672 6.672 0 0 1-5.352-6.54v-.085a6.63 6.63 0 0 0 3.028.835 6.68 6.68 0 0 1-2.065-8.908 18.937 18.937 0 0 0 13.75 6.97 6.68 6.68 0 0 1 11.37-6.085 13.388 13.388 0 0 0 4.238-1.62 6.697 6.697 0 0 1-2.933 3.69 13.27 13.27 0 0 0 3.831-1.05 13.556 13.556 0 0 1-3.33 3.456Z"/></svg>