<svg xmlns="http://www.w3.org/2000/svg" width="40" height="40" fill="none"><path fill="#fff" fill-rule="evenodd" d="M19.83 3.653c-8.984 0-16.26 7.277-16.26 16.26 0 7.195 4.654 13.273 11.117 15.427.813.142 1.118-.345 1.118-.772 0-.386-.02-1.667-.02-3.029-4.086.752-5.143-.996-5.468-1.91-.183-.468-.976-1.91-1.667-2.297-.569-.305-1.382-1.057-.02-1.077 1.28-.02 2.195 1.179 2.5 1.667 1.463 2.459 3.8 1.768 4.736 1.341.142-1.057.569-1.768 1.036-2.175-3.618-.406-7.398-1.809-7.398-8.028 0-1.769.63-3.232 1.667-4.37-.163-.407-.732-2.073.162-4.31 0 0 1.362-.426 4.472 1.667a15.09 15.09 0 0 1 4.065-.548c1.382 0 2.764.183 4.065.548 3.11-2.113 4.472-1.666 4.472-1.666.894 2.236.325 3.902.162 4.309 1.037 1.138 1.667 2.581 1.667 4.37 0 6.24-3.801 7.622-7.419 8.028.59.508 1.098 1.484 1.098 3.008 0 2.175-.02 3.923-.02 4.472 0 .427.304.935 1.117.772A16.287 16.287 0 0 0 36.09 19.913c0-8.983-7.276-16.26-16.26-16.26Z" clip-rule="evenodd"/></svg>