<svg xmlns="http://www.w3.org/2000/svg" width="40" height="40" fill="none"><path fill="#fff" d="m35.89 16.25-.045-.116L31.42 4.582a1.153 1.153 0 0 0-1.145-.725c-.242.013-.474.1-.666.249-.189.154-.326.362-.392.596l-2.99 9.144H14.125l-2.988-9.144a1.162 1.162 0 0 0-.393-.598 1.185 1.185 0 0 0-1.355-.072c-.205.13-.365.322-.455.548L4.498 16.127l-.044.117a8.22 8.22 0 0 0 2.726 9.5l.015.012.04.028 6.744 5.05 3.336 2.525 2.032 1.534a1.366 1.366 0 0 0 1.652 0l2.033-1.534 3.335-2.525 6.784-5.08.017-.014a8.223 8.223 0 0 0 2.723-9.49Z"/></svg>