<svg xmlns="http://www.w3.org/2000/svg" width="101" height="101" fill="none"><g clip-path="url(#a)"><path fill="#D1D1D1" d="M100.552.594h-100v100h100v-100Z"/><path fill="#000" d="M67.722 78.724c2 3.28 4.64 5.7 9.27 5.7 3.9 0 6.39-1.94 6.39-4.63 0-3.2-2.56-4.37-6.83-6.2l-2.35-1c-6.78-2.89-11.28-6.51-11.28-14.16 0-7 5.37-12.41 13.76-12.41 6 0 10.27 2.08 13.37 7.52l-7.32 4.7c-1.61-2.89-3.35-4-6-4s-4.5 1.75-4.5 4c0 2.82 1.75 4 5.78 5.71l2.35 1c8 3.43 12.49 6.92 12.49 14.77 0 8.46-6.64 13.09-15.57 13.09-8.73 0-14.36-4.16-17.12-9.61l7.56-4.48Zm-33.17.81c1.48 2.62 2.82 4.83 6.05 4.83 3.08 0 5-1.2 5-5.9v-31.95h9.4v32.08c0 9.73-5.71 14.15-14 14.15-7.53 0-11.88-3.89-14.1-8.58l7.65-4.63Z"/></g><defs><clipPath id="a"><path fill="#fff" d="M.552.594h100v100h-100z"/></clipPath></defs></svg>