<svg xmlns="http://www.w3.org/2000/svg" width="52" height="53" fill="none"><path fill="#F7DF1E" d="M51.715.573H.257V52.03h51.458V.573Z"/><path fill="#000" d="M34.824 40.775c1.037 1.692 2.385 2.936 4.77 2.936 2.004 0 3.284-1.001 3.284-2.385 0-1.658-1.316-2.245-3.52-3.21l-1.21-.519c-3.489-1.486-5.807-3.349-5.807-7.286 0-3.626 2.763-6.387 7.081-6.387 3.075 0 5.285 1.07 6.878 3.872l-3.765 2.418c-.83-1.487-1.724-2.073-3.112-2.073-1.417 0-2.314.899-2.314 2.073 0 1.45.898 2.037 2.973 2.936l1.209.518c4.108 1.761 6.428 3.558 6.428 7.596 0 4.353-3.42 6.738-8.013 6.738-4.49 0-7.392-2.14-8.812-4.944l3.93-2.283Zm-17.082.419c.76 1.347 1.451 2.487 3.112 2.487 1.589 0 2.591-.622 2.591-3.039V24.2h4.836v16.508c0 5.007-2.936 7.285-7.22 7.285-3.872 0-6.114-2.003-7.255-4.416l3.936-2.383Z"/></svg>