<svg xmlns="http://www.w3.org/2000/svg" width="46" height="101" fill="none"><g clip-path="url(#a)"><path fill="#797979" d="m23.07 1.161 2.66 5a14.841 14.841 0 0 0 2 2.5 70.094 70.094 0 0 1 6.26 7.08 61.64 61.64 0 0 1 9.75 19.66 48.148 48.148 0 0 1 2.07 13.35 47.07 47.07 0 0 1-13.73 34.76 40.156 40.156 0 0 1-4.91 4.2c-.92 0-1.36-.71-1.74-1.37a11.16 11.16 0 0 1-1.36-3.92 18.683 18.683 0 0 1-.44-5v-.77c-.07-.16-.89-75.15-.56-75.54v.05Z"/><path fill="#8E8E8E" d="M23.07 1.001c-.11-.22-.22-.06-.33.05a5 5 0 0 1-.93 3c-.698.892-1.5 1.698-2.39 2.4a52 52 0 0 0-11.71 14.92 60 60 0 0 0-6.79 24.4c-.27 3.1 1 14 2 17.21a52.15 52.15 0 0 0 13.67 21.51 56.5 56.5 0 0 0 4.84 4.14c.49 0 .54-.43.66-.76a15.17 15.17 0 0 0 .49-2.12l1.09-8.17-.6-76.58Z"/><path fill="silver" d="M25.73 91.031a7.45 7.45 0 0 1 1.37-3.33 3.42 3.42 0 0 1-1.53-1.41 9.713 9.713 0 0 1-.81-1.8 30.798 30.798 0 0 1-1.14-7v-1.44c-.28.22-.33 2.07-.33 2.34a55.129 55.129 0 0 1-1 7.36 6.689 6.689 0 0 1-.88 2.83 1.133 1.133 0 0 0 0 .38 32.38 32.38 0 0 1 1.51 8.82v1.11c0 1.3-.05 1 1 1.47.48.104.94.286 1.36.54.33 0 .38-.27.38-.49l-.16-1.8v-5c-.008-.858.066-1.716.22-2.56l.01-.02Z"/></g><defs><clipPath id="a"><path fill="#fff" d="M.92.891h44.92v100H.92z"/></clipPath></defs></svg>