<svg xmlns="http://www.w3.org/2000/svg" width="25" height="56" fill="none"><path fill="#599636" d="m12.193.9 1.46 2.756c.328.508.684.958 1.103 1.378a38.446 38.446 0 0 1 3.426 3.893c2.474 3.265 4.143 6.89 5.335 10.811a26.701 26.701 0 0 1 1.131 7.337c.12 7.427-2.414 13.805-7.523 19.106a21.748 21.748 0 0 1-2.684 2.306c-.506 0-.745-.39-.954-.75a6.187 6.187 0 0 1-.745-2.156c-.18-.898-.298-1.797-.24-2.725v-.419c-.04-.09-.487-41.326-.31-41.537Z"/><path fill="#6CAC48" d="M12.193.809c-.06-.12-.12-.03-.18.029.03.601-.18 1.137-.506 1.65-.359.508-.834.898-1.311 1.317-2.65 2.306-4.736 5.091-6.407 8.206C1.567 16.204.421 20.697.096 25.427c-.149 1.706.537 7.727 1.072 9.464 1.46 4.611 4.083 8.476 7.48 11.83a32.732 32.732 0 0 0 2.65 2.276c.27 0 .298-.24.36-.419.117-.382.207-.773.268-1.168l.598-4.492-.331-42.11Z"/><path fill="#C2BFBF" d="M13.653 50.312c.06-.688.388-1.258.745-1.827-.359-.15-.625-.446-.834-.778a5.567 5.567 0 0 1-.444-.988c-.418-1.258-.507-2.577-.626-3.863v-.778c-.149.12-.18 1.138-.18 1.289a29.984 29.984 0 0 1-.537 4.043c-.089.54-.148 1.077-.478 1.556 0 .06 0 .12.029.21.537 1.588.684 3.204.774 4.852v.602c0 .718-.029.567.564.807.24.09.506.12.746.3.18 0 .208-.15.208-.27l-.088-.989v-2.756c-.03-.48.06-.958.12-1.409l.001-.001Z"/></svg>