<svg xmlns="http://www.w3.org/2000/svg" width="56" height="56" fill="none"><g fill="#00546B"><path d="M50.928 43.126c-2.977-.076-5.284.228-7.22 1.063-.557.227-1.45.227-1.525.949.298.303.335.797.595 1.215.447.759 1.228 1.784 1.936 2.315.78.608 1.563 1.215 2.381 1.746 1.452.912 3.09 1.443 4.503 2.354.82.531 1.638 1.215 2.456 1.784.41.304.67.798 1.191.987v-.114c-.26-.341-.335-.835-.595-1.214-.372-.38-.745-.722-1.117-1.101-1.079-1.48-2.419-2.771-3.87-3.834-1.19-.836-3.796-1.974-4.28-3.38l-.074-.075c.819-.076 1.786-.38 2.568-.607 1.265-.342 2.419-.266 3.721-.608.596-.152 1.191-.341 1.786-.531v-.342c-.67-.683-1.153-1.594-1.86-2.24-1.898-1.67-3.982-3.302-6.14-4.669-1.154-.76-2.643-1.253-3.871-1.898-.446-.228-1.19-.342-1.451-.721-.67-.835-1.043-1.936-1.526-2.923-1.08-2.088-2.121-4.404-3.052-6.605-.67-1.481-1.079-2.962-1.898-4.328-3.833-6.454-8-10.364-14.402-14.198-1.377-.797-3.014-1.139-4.763-1.556-.93-.039-1.86-.114-2.791-.152-.596-.266-1.191-.987-1.712-1.329C7.797 1.747 2.326-1.214.763 2.697c-1.005 2.467 1.489 4.896 2.344 6.15.634.872 1.452 1.86 1.899 2.846.26.645.334 1.33.595 2.012.596 1.67 1.153 3.53 1.935 5.087.41.797.856 1.632 1.377 2.354.298.417.819.607.93 1.29-.52.76-.558 1.899-.856 2.848-1.34 4.29-.818 9.604 1.08 12.755.595.948 2.01 3.037 3.907 2.24 1.675-.684 1.303-2.847 1.786-4.746.112-.456.038-.759.261-1.063v.077c.521 1.062 1.042 2.088 1.526 3.15 1.154 1.86 3.163 3.796 4.838 5.087.893.683 1.6 1.86 2.717 2.278v-.114h-.075c-.223-.342-.558-.494-.856-.76-.67-.683-1.414-1.518-1.935-2.277-1.563-2.126-2.94-4.48-4.168-6.91-.595-1.176-1.117-2.467-1.6-3.643-.224-.456-.224-1.14-.596-1.367-.558.835-1.377 1.556-1.786 2.581-.707 1.633-.781 3.645-1.042 5.732-.149.039-.075 0-.15.077-1.19-.304-1.6-1.557-2.046-2.62-1.116-2.695-1.303-7.023-.335-10.136.26-.797 1.377-3.302.93-4.061-.223-.722-.967-1.14-1.376-1.709-.484-.721-1.005-1.632-1.34-2.43-.893-2.125-1.34-4.479-2.307-6.605-.447-.987-1.228-2.012-1.861-2.923-.707-1.025-1.489-1.746-2.047-2.96-.186-.418-.446-1.102-.149-1.557.075-.304.223-.418.521-.494.484-.417 1.861.114 2.345.342 1.377.569 2.53 1.1 3.684 1.898.521.38 1.08 1.101 1.749 1.29h.782c1.19.266 2.53.077 3.647.418 1.972.645 3.758 1.595 5.359 2.62 4.875 3.15 8.894 7.63 11.61 12.982.447.873.633 1.671 1.042 2.582.782 1.86 1.75 3.758 2.531 5.58.782 1.784 1.526 3.607 2.642 5.087.559.797 2.791 1.215 3.796 1.633.745.341 1.898.645 2.568 1.063 1.265.796 2.53 1.708 3.721 2.58.596.456 2.456 1.406 2.568 2.165Z"/><path d="M12.97 10.137a5.79 5.79 0 0 0-1.526.19v.076h.074c.298.607.819 1.025 1.19 1.556.299.607.559 1.215.857 1.822l.074-.076c.521-.38.782-.987.782-1.898-.224-.265-.26-.531-.447-.797-.223-.38-.707-.57-1.005-.873Z"/></g></svg>