<svg xmlns="http://www.w3.org/2000/svg" width="92" height="101" fill="none"><g fill="#A8A8A8" clip-path="url(#a)"><path d="M41.733 1.367a8.38 8.38 0 0 1 8.19 0c12.46 7.04 24.924 14.08 37.39 21.12a7.72 7.72 0 0 1 3.89 6.63v42.37a7.8 7.8 0 0 1-4.18 6.81l-37.26 21a8.14 8.14 0 0 1-8.31-.25c-3.72-2.16-7.446-4.313-11.18-6.46a6.718 6.718 0 0 1-2.16-1.56c.48-.64 1.33-.72 2-1a26 26 0 0 0 4.41-2 1 1 0 0 1 1.15.07c3.18 1.82 6.34 3.7 9.54 5.51.68.39 1.37-.13 1.95-.45 12.194-6.92 24.404-13.82 36.63-20.7a1.2 1.2 0 0 0 .66-1.16v-42a1.3 1.3 0 0 0-.78-1.3l-37.12-20.9a1.26 1.26 0 0 0-.73-.23 1.29 1.29 0 0 0-.73.23l-37.12 20.93a1.29 1.29 0 0 0-.79 1.27v41.94c-.02.24.032.48.15.69.125.212.31.382.53.49l9.91 5.6a7.7 7.7 0 0 0 6.2.83 4.72 4.72 0 0 0 3.05-4.42v-41.69a.999.999 0 0 1 1.14-1.07h4.76a1.099 1.099 0 0 1 1 1.27v41.95c0 3.73-1.53 7.78-5 9.6-4.18 2.24-9.47 1.81-13.63-.33-3.63-1.81-7.1-4-10.66-5.9a7.75 7.75 0 0 1-4.18-6.77v-42.37a7.7 7.7 0 0 1 4-6.72l37.28-21.03Z"/><path d="M52.563 30.717c5.42-.35 11.22-.21 16.1 2.46 3.77 2 5.86 6.34 5.93 10.53a1.14 1.14 0 0 1-1.24.84h-4.71a1.22 1.22 0 0 1-1.14-1.18 7.17 7.17 0 0 0-3.44-5c-2.89-1.45-6.26-1.38-9.42-1.35-2.3.12-4.79.32-6.74 1.68a4.26 4.26 0 0 0-1.45 4.8c.5 1.2 1.89 1.59 3 1.95 6.53 1.7 13.45 1.53 19.85 3.78 2.65.92 5.25 2.7 6.15 5.47a11.69 11.69 0 0 1-2 11.16 15.6 15.6 0 0 1-8.39 4.52 40.139 40.139 0 0 1-12.61.54c-4-.45-8.09-1.49-11.14-4.19a11.681 11.681 0 0 1-3.77-9.23 1.07 1.07 0 0 1 1.16-.93h4.75a1.1 1.1 0 0 1 1.13 1.09 7.168 7.168 0 0 0 2.68 5.05c3.21 2.08 7.25 1.94 10.93 2 3.05-.13 6.48-.17 9-2.19a5 5 0 0 0 1.35-4.73c-.39-1.4-1.85-2.05-3.1-2.47-6.45-2-13.44-1.3-19.83-3.61-2.59-.91-5.09-2.65-6.09-5.31a10.87 10.87 0 0 1 2.17-11.31c2.85-2.87 7-4 10.88-4.37h-.01Z"/></g><defs><clipPath id="a"><path fill="#fff" d="M.453.297h90.75v100H.453z"/></clipPath></defs></svg>