<svg xmlns="http://www.w3.org/2000/svg" width="48" height="53" fill="none"><g fill="#8CC84B"><path d="M22.11 1.122c1.277-.73 2.939-.734 4.213 0 6.414 3.624 12.83 7.242 19.242 10.868 1.206.68 2.013 2.022 2 3.412v21.803c.01 1.447-.877 2.822-2.15 3.486-6.392 3.603-12.781 7.212-19.172 10.816-1.303.744-2.998.687-4.26-.119-1.916-1.11-3.836-2.216-5.753-3.326-.391-.233-.833-.42-1.11-.799.245-.33.682-.37 1.038-.514.8-.255 1.534-.663 2.27-1.06.185-.127.412-.078.59.036 1.639.94 3.263 1.907 4.907 2.837.351.203.706-.066 1.006-.233 6.273-3.546 12.554-7.078 18.826-10.624a.623.623 0 0 0 .342-.613c.004-7.192 0-14.386.002-21.578a.674.674 0 0 0-.402-.673c-6.37-3.588-12.737-7.18-19.106-10.77a.663.663 0 0 0-.75 0c-6.37 3.59-12.736 7.186-19.105 10.773a.666.666 0 0 0-.404.67v21.58a.61.61 0 0 0 .347.604c1.7.964 3.401 1.921 5.102 2.882.958.516 2.134.822 3.19.427.932-.334 1.585-1.285 1.567-2.274.009-7.15-.004-14.302.006-21.451-.023-.318.278-.58.587-.55.817-.006 1.634-.011 2.451.002.34-.008.575.334.533.654-.003 7.196.01 14.391-.005 21.587.002 1.918-.786 4.005-2.56 4.943-2.185 1.132-4.886.892-7.045-.194-1.869-.932-3.653-2.033-5.488-3.033-1.276-.66-2.158-2.04-2.15-3.486V15.402c-.013-1.419.826-2.785 2.07-3.455C9.33 8.34 15.72 4.73 22.11 1.122Z"/><path d="M27.686 16.225c2.788-.18 5.772-.106 8.28 1.267 1.943 1.052 3.02 3.26 3.054 5.418-.055.291-.359.452-.637.432-.808-.001-1.617.011-2.426-.005-.343.013-.543-.303-.586-.607-.232-1.032-.795-2.055-1.767-2.553-1.491-.746-3.22-.709-4.847-.693-1.188.063-2.465.166-3.47.864-.773.529-1.008 1.597-.732 2.456.26.618.973.817 1.556 1 3.36.88 6.92.792 10.214 1.948 1.364.471 2.7 1.388 3.166 2.816.61 1.915.343 4.203-1.019 5.74-1.105 1.265-2.713 1.953-4.318 2.327-2.134.476-4.35.488-6.517.276-2.038-.232-4.16-.767-5.733-2.156-1.346-1.169-2.003-2.989-1.938-4.746.016-.297.311-.504.595-.48.815-.006 1.63-.008 2.444.002.325-.023.566.258.583.564.15.984.52 2.016 1.378 2.6 1.655 1.067 3.732.994 5.627 1.024 1.57-.07 3.333-.09 4.615-1.128.676-.592.876-1.583.693-2.435-.198-.72-.95-1.054-1.596-1.273-3.317-1.05-6.916-.669-10.2-1.855-1.334-.471-2.623-1.362-3.135-2.732-.715-1.939-.387-4.337 1.117-5.822 1.468-1.477 3.586-2.046 5.6-2.25v.001Z"/></g></svg>