<svg xmlns="http://www.w3.org/2000/svg" width="52" height="52" fill="none"><path fill="url(#a)" d="M26.086.088c-13.064 0-12.248 5.665-12.248 5.665l.014 5.869H26.32v1.762H8.9S.542 12.436.542 25.616c0 13.181 7.296 12.714 7.296 12.714h4.354v-6.116s-.234-7.297 7.18-7.297h12.364s6.947.113 6.947-6.713V6.918S39.738.088 26.086.088Zm-6.874 3.946a2.24 2.24 0 0 1 2.072 3.102 2.24 2.24 0 0 1-2.93 1.213 2.24 2.24 0 0 1-1.215-2.93 2.24 2.24 0 0 1 2.073-1.385Z"/><path fill="url(#b)" d="M26.457 51.278c13.063 0 12.247-5.665 12.247-5.665l-.014-5.869H26.224v-1.762H43.64S52 38.93 52 25.749c0-13.181-7.296-12.714-7.296-12.714H40.35v6.117s.234 7.296-7.18 7.296H20.806s-6.947-.112-6.947 6.714v11.286s-1.054 6.83 12.597 6.83Zm6.873-3.947a2.24 2.24 0 0 1-2.072-3.1 2.24 2.24 0 0 1 2.93-1.215 2.24 2.24 0 0 1 1.215 2.931 2.24 2.24 0 0 1-2.073 1.384Z"/><defs><linearGradient id="a" x1="5.487" x2="30.988" y1="4.692" y2="29.938" gradientUnits="userSpaceOnUse"><stop stop-color="#387EB8"/><stop offset="1" stop-color="#366994"/></linearGradient><linearGradient id="b" x1="21.14" x2="48.525" y1="20.904" y2="46.792" gradientUnits="userSpaceOnUse"><stop stop-color="#FFE052"/><stop offset="1" stop-color="#FFC331"/></linearGradient></defs></svg>