<svg width="54" height="52" viewBox="0 0 54 52" fill="none" xmlns="http://www.w3.org/2000/svg">
<g id="Group 70">
<path id="Vector" d="M26.9966 30.2657C29.5021 30.2657 31.5332 28.2346 31.5332 25.729C31.5332 23.2235 29.5021 21.1924 26.9966 21.1924C24.491 21.1924 22.4599 23.2235 22.4599 25.729C22.4599 28.2346 24.491 30.2657 26.9966 30.2657Z" fill="#61DAFB"/>
<g id="Group">
<path id="Vector_2" d="M26.9965 35.0235C40.4408 35.0235 51.3396 30.8622 51.3396 25.7289C51.3396 20.5957 40.4408 16.4343 26.9965 16.4343C13.5522 16.4343 2.6535 20.5957 2.6535 25.7289C2.6535 30.8622 13.5522 35.0235 26.9965 35.0235Z" stroke="#61DAFB" stroke-width="5"/>
<path id="Vector_3" d="M18.9472 30.3763C25.6693 42.0194 34.7225 49.3773 39.1681 46.8107C43.6136 44.244 41.768 32.7248 35.0459 21.0817C28.3238 9.43859 19.2706 2.08067 14.825 4.64731C10.3795 7.21394 12.225 18.7332 18.9472 30.3763Z" stroke="#61DAFB" stroke-width="5"/>
<path id="Vector_4" d="M18.9472 21.0816C12.225 32.7247 10.3795 44.244 14.825 46.8106C19.2706 49.3772 28.3238 42.0193 35.0459 30.3762C41.768 18.7331 43.6136 7.21389 39.168 4.64725C34.7225 2.08061 25.6693 9.43853 18.9472 21.0816Z" stroke="#61DAFB" stroke-width="5"/>
</g>
</g>
</svg>
