<svg xmlns="http://www.w3.org/2000/svg" width="100" height="90" fill="none"><g clip-path="url(#a)"><path fill="#B9B9B9" d="M50.11 53.414a8.821 8.821 0 1 0-8.143-5.445 8.807 8.807 0 0 0 8.142 5.445Z"/><path stroke="#B9B9B9" stroke-width="5" d="M50.11 62.654c26.12 0 47.3-8.08 47.3-18.06 0-9.98-21.18-18.06-47.3-18.06-26.12 0-47.31 8.09-47.31 18.06 0 9.97 21.18 18.06 47.31 18.06Z"/><path stroke="#B9B9B9" stroke-width="5" d="M34.46 53.624c13.07 22.63 30.66 36.93 39.3 31.94 8.64-4.99 5.05-27.37-8-50S35.09-1.366 26.45 3.624c-8.64 4.99-5.05 27.38 8.01 50Z"/><path stroke="#B9B9B9" stroke-width="5" d="M34.46 35.564c-13.06 22.63-16.65 45-8 50 8.65 5 26.24-9.31 39.3-31.94 13.06-22.63 16.65-45 8-50-8.65-5-26.23 9.31-39.3 31.94Z"/></g><defs><clipPath id="a"><path fill="#fff" d="M.3.134h99.61v88.92H.3z"/></clipPath></defs></svg>