<svg xmlns="http://www.w3.org/2000/svg" width="54" height="52" fill="none"><path fill="#61DAFB" d="M26.997 30.266a4.537 4.537 0 1 0 0-9.074 4.537 4.537 0 0 0 0 9.074Z"/><g stroke="#61DAFB" stroke-width="5"><path d="M26.997 35.023c13.444 0 24.343-4.16 24.343-9.294 0-5.133-10.9-9.295-24.344-9.295S2.655 20.596 2.655 25.73s10.898 9.294 24.343 9.294Z"/><path d="M18.947 30.376C25.67 42.02 34.722 49.377 39.168 46.811c4.446-2.567 2.6-14.086-4.122-25.73-6.722-11.642-15.775-19-20.221-16.434-4.445 2.567-2.6 14.086 4.122 25.73Z"/><path d="M18.947 21.082c-6.722 11.643-8.567 23.162-4.122 25.729 4.446 2.566 13.499-4.792 20.22-16.435 6.723-11.643 8.569-23.162 4.123-25.729-4.446-2.566-13.499 4.792-20.22 16.435Z"/></g></svg>