<svg xmlns="http://www.w3.org/2000/svg" width="53" height="53" fill="none"><path fill="#017ACB" d="M.56.573H52.02V52.03H.56V.573Z"/><path fill="#fff" d="M25.269 19.628h2.468v4.262h-6.673v18.959l-.177.048c-.241.064-3.417.064-4.1-.008l-.547-.048V23.89H9.566v-4.262l2.115-.024c1.158-.016 4.132-.016 6.609 0 2.476.016 5.612.024 6.979.024Zm18.838 21.21c-.98 1.038-2.034 1.617-3.787 2.091-.764.21-.892.217-2.613.21-1.72-.009-1.857-.009-2.693-.226-2.163-.555-3.908-1.64-5.098-3.176-.338-.434-.892-1.334-.892-1.447 0-.032.08-.105.184-.153.105-.048.322-.185.499-.29.177-.104.498-.297.716-.41.217-.112.844-.482 1.39-.811.547-.33 1.046-.595 1.102-.595.056 0 .16.112.241.249.483.812 1.608 1.85 2.404 2.203.49.209 1.576.442 2.099.442.482 0 1.367-.209 1.841-.426.507-.233.764-.466 1.07-.933.209-.33.233-.418.225-1.045 0-.579-.032-.74-.193-1.005-.45-.74-1.062-1.126-3.538-2.22-2.557-1.133-3.707-1.808-4.64-2.717-.69-.675-.828-.86-1.262-1.704-.563-1.086-.635-1.44-.643-3.056-.008-1.133.016-1.503.137-1.889.169-.579.715-1.697.965-1.978.514-.603.7-.788 1.061-1.085 1.093-.9 2.798-1.496 4.43-1.552.185 0 .796.032 1.367.072 1.64.137 2.758.539 3.835 1.4.812.642 2.042 2.154 1.922 2.355-.08.12-3.289 2.26-3.498 2.324-.128.04-.217-.008-.394-.217-1.093-1.311-1.535-1.592-2.597-1.657-.755-.048-1.157.04-1.664.378-.53.354-.788.893-.788 1.64.008 1.094.426 1.608 1.97 2.372.997.49 1.85.893 1.913.893.097 0 2.163 1.029 2.702 1.35 2.509 1.472 3.53 2.983 3.795 5.588.193 1.962-.362 3.755-1.568 5.026Z"/></svg>