<svg xmlns="http://www.w3.org/2000/svg" width="101" height="101" fill="none"><path fill="#BBB" d="M0 0h101v101H0z"/><g filter="url(#a)"><rect width="180" height="180" x="-39.276" y="-39.109" fill="#fff" rx="32"/><rect width="179" height="179" x="-38.776" y="-38.609" stroke="#878787" rx="31.5"/></g><g clip-path="url(#b)"><path fill="#5F5F5F" d="M.38.485h100.001v100h-100v-100Z"/><path fill="#fff" d="M48.38 37.485h4.79v8.28h-13v36.88l-.34.09c-.47.12-6.64.12-8 0l-1.06-.09v-36.85h-13v-8.31h30.61Zm36.63 41.25a14.25 14.25 0 0 1-7.36 4.06c-1.49.41-1.74.42-5.08.41-3.34-.01-3.61 0-5.24-.44a17.83 17.83 0 0 1-9.9-6.17 15.004 15.004 0 0 1-1.74-2.81c0-.07.16-.21.36-.3.2-.09.63-.36 1-.56.37-.2 1-.58 1.39-.8.39-.22 1.64-.94 2.7-1.58a15.57 15.57 0 0 1 2.15-1.15c.1 0 .31.21.46.48a12.74 12.74 0 0 0 4.63 4.28c1.307.488 2.679.778 4.07.86a10.997 10.997 0 0 0 3.58-.83 4.27 4.27 0 0 0 2.08-1.81c.41-.64.45-.81.44-2a3 3 0 0 0-.38-2c-.87-1.44-2.06-2.19-6.87-4.32-5-2.2-7.21-3.51-9-5.28a9.56 9.56 0 0 1-2.45-3.29c-1.09-2.11-1.24-2.8-1.25-5.94a11.812 11.812 0 0 1 .26-3.67 15.614 15.614 0 0 1 1.88-3.84 13.85 13.85 0 0 1 2.06-2.11 15 15 0 0 1 8.61-3c.36 0 1.55.06 2.66.14a12.67 12.67 0 0 1 7.45 2.72c1.58 1.25 4 4.19 3.74 4.58-.16.23-6.4 4.39-6.8 4.51-.25.08-.42 0-.77-.42-2.12-2.54-3-3.09-5-3.22a4.53 4.53 0 0 0-3.24.74 3.54 3.54 0 0 0-1.53 3.19c0 2.12.83 3.12 3.83 4.61 1.94.95 3.59 1.73 3.72 1.73.13 0 4.2 2 5.25 2.62 4.87 2.86 6.86 5.8 7.37 10.86a12.19 12.19 0 0 1-3 9.77l-.08-.02Z"/></g><defs><clipPath id="b"><path fill="#fff" d="M.38.485h100v100H.38z"/></clipPath><filter id="a" width="260" height="260" x="-79.276" y="-75.109" color-interpolation-filters="sRGB" filterUnits="userSpaceOnUse"><feFlood flood-opacity="0" result="BackgroundImageFix"/><feColorMatrix in="SourceAlpha" result="hardAlpha" values="0 0 0 0 0 0 0 0 0 0 0 0 0 0 0 0 0 0 127 0"/><feOffset dy="4"/><feGaussianBlur stdDeviation="20"/><feComposite in2="hardAlpha" operator="out"/><feColorMatrix values="0 0 0 0 0.0367917 0 0 0 0 0.0348958 0 0 0 0 0.0484375 0 0 0 0.1 0"/><feBlend in2="BackgroundImageFix" result="effect1_dropShadow_303_11482"/><feBlend in="SourceGraphic" in2="effect1_dropShadow_303_11482" result="shape"/></filter></defs></svg>